HIERARCHY
ROOT HipCenter
{
    OFFSET 0.0 0.0 -0.0
    CHANNELS 6 Xposition Yposition Zposition Zrotation Xrotation Yrotation
    JOINT Spine
    {
        OFFSET 0.0 10.527351379394531 0.0
        CHANNELS 3 Zrotation Xrotation Yrotation
        JOINT ShoulderCenter
        {
            OFFSET 0.0 31.097728729248047 0.0
            CHANNELS 3 Zrotation Xrotation Yrotation
            JOINT LeftShoulder
            {
                OFFSET 19.334375381469727 0.0 0.0
                CHANNELS 3 Zrotation Xrotation Yrotation
                JOINT LeftElbow
                {
                    OFFSET 26.163959503173828 0.0 0.0
                    CHANNELS 3 Zrotation Xrotation Yrotation
                    JOINT LeftWrist
                    {
                        OFFSET 30.865591049194336 0.0 0.0
                        CHANNELS 3 Zrotation Xrotation Yrotation
                        JOINT LeftHand
                        {
                            OFFSET 3.130814552307129 0.0 0.0
                            CHANNELS 3 Zrotation Xrotation Yrotation
                            End Site
                            {
                                OFFSET 1.2523257732391357 0.0 0.0
                            }
                        }
                    }
                }
            }
            JOINT RightShoulder
            {
                OFFSET -19.334375381469727 0.0 0.0
                CHANNELS 3 Zrotation Xrotation Yrotation
                JOINT RightElbow
                {
                    OFFSET -26.163959503173828 0.0 0.0
                    CHANNELS 3 Zrotation Xrotation Yrotation
                    JOINT RightWrist
                    {
                        OFFSET -30.865591049194336 0.0 0.0
                        CHANNELS 3 Zrotation Xrotation Yrotation
                        JOINT RightHand
                        {
                            OFFSET -3.130814552307129 0.0 0.0
                            CHANNELS 3 Zrotation Xrotation Yrotation
                            End Site
                            {
                                OFFSET -1.2523257732391357 0.0 0.0
                            }
                        }
                    }
                }
            }
            End Site
            {
                OFFSET 0.0 12.439092636108398 0.0
            }
        }
    }
    JOINT LeftHip
    {
        OFFSET 14.168973922729492 0.0 0.0
        CHANNELS 3 Zrotation Xrotation Yrotation
        JOINT LeftKnee
        {
            OFFSET 0.0 -41.67148208618164 0.0
            CHANNELS 3 Zrotation Xrotation Yrotation
            JOINT LeftAnkle
            {
                OFFSET 0.0 -43.67265701293945 0.0
                CHANNELS 3 Zrotation Xrotation Yrotation
                JOINT LeftFoot
                {
                    OFFSET 0.0 -11.316573143005371 0.0
                    CHANNELS 3 Zrotation Xrotation Yrotation
                    End Site
                    {
                        OFFSET 0.0 0.0 4.526628494262695
                    }
                }
            }
        }
    }
    JOINT RightHip
    {
        OFFSET -14.168973922729492 0.0 0.0
        CHANNELS 3 Zrotation Xrotation Yrotation
        JOINT RightKnee
        {
            OFFSET 0.0 -41.67148208618164 0.0
            CHANNELS 3 Zrotation Xrotation Yrotation
            JOINT RightAnkle
            {
                OFFSET 0.0 -43.67265701293945 0.0
                CHANNELS 3 Zrotation Xrotation Yrotation
                JOINT RightFoot
                {
                    OFFSET 0.0 -11.316573143005371 0.0
                    CHANNELS 3 Zrotation Xrotation Yrotation
                    End Site
                    {
                        OFFSET 0.0 0.0 4.526628494262695
                    }
                }
            }
        }
    }
}
MOTION
Frames: 8
Frame Time: 0.03333333333333333
-4.099999904632568 5.299999713897705 33.099998474121094 -1.636576526659155 -1.6359054694655766 -3.1891978764516686 0.1131133360593127 -2.4061811163799685 0.11818820118185902 -3.76893391991618e-08 -7.529488227761641e-08 3.264820750397507 88.24959005977021 1.939980676924995 166.5371836978454 -6.30461717783525e-07 3.1500947947851493e-07 36.39320615775412 -3.5879617850100284e-06 11.797426338126737 30.35052936027152 -3.1805546814635168e-15 -3.1805546814635168e-15 3.1805546814635168e-15 -89.93456355945926 11.07292129736481 -161.92743914308969 5.092086098904695e-06 5.529781380933851e-07 -41.149188326094944 -179.9999973370822 -48.94256412159451 137.35902002395707 0.0 7.951386703658792e-16 0.0 6.296837427175997 -1.218726341252743 -26.094504630947323 -7.551822706057312 21.6094343349177 -22.25912593710138 93.94731374191592 -31.819359774783567 154.344372122105 3.1805546814635176e-15 6.361109362927035e-15 3.1805546814635176e-15 -22.49867351093664 1.5214369243794337 42.85913956114726 0.10277788559692567 0.018204288529340137 0.037476526703675586 -64.45199244143771 -44.163322745453 -138.83129580851232 1.5448672043175555e-31 -5.565970692561154e-15 3.1805546814635168e-15
-4.099999904632568 5.299999713897705 33.099998474121094 -1.636576526659155 -1.6359054694655766 -3.1891978764516686 0.1131133360593127 -2.4061811163799685 0.11818820118185902 -7.016025090614104e-08 -1.359582635588461e-07 3.4139391409727993 88.24973815640237 1.790931863293939 166.53262642526232 -6.30461717783525e-07 3.1500947947851493e-07 36.39320615775412 -3.5879617850100284e-06 11.797426338126737 30.35052936027152 -3.1805546814635168e-15 -3.1805546814635168e-15 3.1805546814635168e-15 -89.95111628447411 11.271871688253741 -161.9243756501738 3.297270611436168e-06 -6.062211623524486e-07 -40.989643784151816 179.99999858381895 -50.92405529563054 139.3222930931785 -6.3611093629270335e-15 3.1805546814635168e-15 -3.1805546814635168e-15 6.296837427175997 -1.218726341252743 -26.094504630947323 -7.551822706057312 21.6094343349177 -22.25912593710138 93.94731374191592 -31.819359774783567 154.344372122105 3.1805546814635176e-15 6.361109362927035e-15 3.1805546814635176e-15 -22.49867351093664 1.5214369243794337 42.85913956114726 0.00973990248152829 0.09275749263820413 0.19175821648023222 -64.52954337303977 -44.51700344671955 -138.82513582031663 -1.5902773407317584e-15 2.2069531490250793e-32 -1.5902773407317584e-15
-4.099999904632568 5.299999713897705 33.19999694824219 -1.6365765736250906 -2.1807394431130196 -3.1634024034432686 0.08192889086704257 -1.862228844685854 0.09144854057790394 -1.2990247799747185e-07 1.0575518354329176e-07 3.4034244385014647 88.2609305093479 1.7917717273681866 166.56765640511372 -1.3027538183073548e-06 -1.0722702578817334e-06 36.19023475176226 -3.2261237600299127e-06 11.30866009178462 31.316476418208357 -1.5902773407317584e-15 0.0 0.0 -89.9498677231577 11.257603982963472 -161.92460957591607 2.20178559329238e-06 8.761449027785932e-07 -40.906430871147315 179.99999255575034 -50.336846765321475 136.64530774994353 0.0 0.0 0.0 6.265236640258561 -0.680816966470019 -25.560175125026877 -7.307990355361372 21.68954637268812 -22.60704023633668 93.96078394736642 -32.13161832424423 154.39838170593248 1.7655625192200634e-31 -6.3611093629270335e-15 3.1805546814635168e-15 -22.534587286897004 2.033843940659998 42.31106673696478 0.008551902763648795 0.09287397378183422 0.19403601475514148 -64.01895120907008 -45.10100123088386 -138.25400449468117 -3.310429723537619e-32 7.951386703658792e-16 4.770832022195275e-15
-4.099999904632568 5.299999713897705 33.19999694824219 -1.6365765736250906 -2.1807394431130196 -3.1634024034432686 0.07180244376207907 -1.6792260755153843 0.08216665655381096 -4.4259840796145526e-08 -1.9373382489766408e-07 3.2619115473746803 88.25400557413862 1.936611547017643 166.75553109934052 -2.8609160593705607e-06 -1.8389675674795323e-06 36.190230633117 1.2599794983999723e-06 14.717176536589841 30.712122126561407 6.361109362927035e-15 1.7655625192200634e-31 3.1805546814635176e-15 -89.93101532361922 11.157176555527125 -162.10806099398442 5.496913717986533e-06 -2.1572752139940506e-06 -40.746795174305255 179.99999994349628 -52.41946960379152 138.63776142624084 0.0 3.1805546814635168e-15 0.0 6.265236640258561 -0.680816966470019 -25.560175125026877 -7.307990355361372 21.68954637268812 -22.60704023633668 93.96078394736642 -32.13161832424423 154.39838170593248 1.7655625192200634e-31 -6.3611093629270335e-15 3.1805546814635168e-15 -22.54352291942341 2.1697822354353127 42.53329723410647 -0.19808606366842457 -0.07975684404929419 -0.16754329209566038 -63.108698521480044 -44.778658782362754 -137.60639775394847 -8.827812596100317e-32 -6.3611093629270335e-15 -1.5902773407317584e-15
-4.099999904632568 5.299999713897705 33.19999694824219 -1.6365765736250906 -2.1807394431130196 -3.1634024034432686 0.07180244376207907 -1.6792260755153843 0.08216665655381096 -4.4259840796145526e-08 -1.9373382489766408e-07 3.2619115473746803 88.31823911061385 0.3685441114291859 166.9683139130358 -1.9526910930140153e-07 3.7018044392561083e-07 35.69771354443595 4.769475579467342e-08 9.268620530119282 30.68999872642835 -3.1805546814635164e-15 0.0 0.0 -89.93101532361922 11.157176555527125 -162.10806099398442 5.496913717986533e-06 -2.1572752139940506e-06 -40.746795174305255 179.99999994349628 -52.41946960379152 138.63776142624084 0.0 3.1805546814635168e-15 0.0 6.265236640258561 -0.680816966470019 -25.560175125026877 -7.307990355361372 21.68954637268812 -22.60704023633668 93.96078394736642 -32.13161832424423 154.39838170593248 1.7655625192200634e-31 -6.3611093629270335e-15 3.1805546814635168e-15 -22.54352291942341 2.1697822354353127 42.53329723410647 -0.2917024084147802 -0.005952973753634093 -0.012559472967775785 -63.177948083303136 -45.137135142689296 -137.59530788725894 -3.1805546814635176e-15 -7.951386703658794e-16 -1.5902773407317588e-15
-4.099999904632568 5.299999713897705 33.19999694824219 -1.6365765736250906 -2.1807394431130196 -3.1634024034432686 0.07180244376207907 -1.6792260755153843 0.08216665655381096 1.3719065740992234e-08 2.6068055464805096e-07 3.261156826655016 88.25226385287665 1.0237869200912377 166.96839600967402 -2.429838702520388e-06 1.868247789204487e-06 35.537091251700936 -4.763051988511246e-06 10.167681990268301 30.881169654644804 -7.951386703658793e-15 0.0 0.0 -89.93101360010212 11.156421361817875 -162.1080599437741 5.496913717986533e-06 -2.1572752139940506e-06 -40.746795174305255 179.99999724426675 -49.77565660015403 139.65229662166848 0.0 0.0 0.0 6.265236640258561 -0.680816966470019 -25.560175125026877 -7.307990355361372 21.68954637268812 -22.60704023633668 93.96078394736642 -32.13161832424423 154.39838170593248 1.7655625192200634e-31 -6.3611093629270335e-15 3.1805546814635168e-15 -22.54352291942341 2.1697822354353127 42.53329723410647 -0.076405324498413 -0.013366958197866798 -0.027928389130840683 -64.01893490376546 -45.10099503174231 -138.25398772074396 -1.5902773407317588e-15 7.156248033292914e-15 -1.5902773407317588e-15
-4.099999904632568 5.299999713897705 33.19999694824219 -1.6365764341325668 -2.1807394883902966 -3.1763125107403174 0.0721808736642868 -1.6792097971115805 0.0726341139625583 5.7073514620912085e-08 4.648297737814538e-07 3.2936285143329718 88.24376220535355 1.0343125083371805 166.93413430171609 -1.7646526086111307e-07 2.2775619154424634e-06 35.571198861005605 -6.171635557128953e-06 10.189920813606783 30.881169987646842 -7.951386703658793e-15 0.0 0.0 -89.8451156079269 10.905143319619416 -162.1245179518683 1.3305077206056684e-06 1.9176834165845394e-06 -40.717393760103235 179.9999986800536 -50.421046717805275 136.65417378520627 0.0 0.0 -3.1805546814635164e-15 6.265389563419909 -0.6794078371732081 -25.547343261731648 -7.307990355361372 21.68954637268812 -22.60704023633668 93.96078394736642 -32.13161832424423 154.39838170593248 1.7655625192200634e-31 -6.3611093629270335e-15 3.1805546814635168e-15 -22.475087406272312 2.1736698667584573 42.715641283749065 -0.039540242909812076 -0.0469318050018451 -0.09884294166980553 -63.42505715353948 -44.5598483233743 -138.0997469538354 -4.770832022195275e-15 -7.951386703658792e-16 -3.310429723537619e-32
-4.099999904632568 5.299999713897705 33.19999694824219 -1.6365765201786822 -1.6358846045026718 -3.5246523053845173 0.11592094640642034 -2.222570148812437 0.09698085921090266 -1.7284495299278648e-07 -3.2311643567123194e-08 3.7674700509818067 88.2438394751396 0.885624773147303 166.9295676998908 -1.7646526086111307e-07 2.2775619154424634e-06 35.571198861005605 -5.0742283537120035e-06 7.1933668885122195 30.77546150037316 4.770832022195274e-15 -6.361109362927033e-15 2.648343778830095e-31 -89.87032509883161 10.99498699190365 -161.90458230924034 5.623513823531115e-07 -4.6915265578317713e-07 -40.93289592398888 179.9999941118369 -50.357124259436354 136.65417449443322 0.0 0.0 -3.1805546814635164e-15 6.295782410212558 -1.0436239433047056 -25.937411788153184 -7.546971171420099 21.466361650650246 -22.088368779052093 93.94731374191592 -31.819359774783567 154.344372122105 3.1805546814635176e-15 6.361109362927035e-15 3.1805546814635176e-15 -22.437685065169894 1.4015749608299022 42.60533896822005 0.04613495142579512 0.059533562429396815 0.12537602354344815 -63.42506558687895 -44.55985033076316 -138.09974875441833 -1.5902773407317582e-15 4.4139062980501586e-32 -3.1805546814635164e-15
